<?xml version="1.0" encoding="UTF-8" standalone="no"?>
<!-- Generator: Adobe Illustrator 19.0.0, SVG Export Plug-In . SVG Version: 6.00 Build 0)  -->

<svg
   xmlns:dc="http://purl.org/dc/elements/1.1/"
   xmlns:cc="http://creativecommons.org/ns#"
   xmlns:rdf="http://www.w3.org/1999/02/22-rdf-syntax-ns#"
   xmlns:svg="http://www.w3.org/2000/svg"
   xmlns="http://www.w3.org/2000/svg"
   xmlns:sodipodi="http://sodipodi.sourceforge.net/DTD/sodipodi-0.dtd"
   xmlns:inkscape="http://www.inkscape.org/namespaces/inkscape"
   version="1.1"
   id="Layer_1"
   x="0px"
   y="0px"
   viewBox="0 0 496.2 496.2"
   style="enable-background:new 0 0 496.2 496.2;"
   xml:space="preserve"
   sodipodi:docname="relax.svg"
   inkscape:version="0.92.1 r"><metadata
     id="metadata103"><rdf:RDF><cc:Work
         rdf:about=""><dc:format>image/svg+xml</dc:format><dc:type
           rdf:resource="http://purl.org/dc/dcmitype/StillImage" /><dc:title></dc:title></cc:Work></rdf:RDF></metadata><defs
     id="defs101" /><sodipodi:namedview
     pagecolor="#ffffff"
     bordercolor="#666666"
     borderopacity="1"
     objecttolerance="10"
     gridtolerance="10"
     guidetolerance="10"
     inkscape:pageopacity="0"
     inkscape:pageshadow="2"
     inkscape:window-width="1908"
     inkscape:window-height="1023"
     id="namedview99"
     showgrid="false"
     inkscape:zoom="1.3452414"
     inkscape:cx="256.70647"
     inkscape:cy="216.19958"
     inkscape:window-x="0"
     inkscape:window-y="30"
     inkscape:window-maximized="1"
     inkscape:current-layer="Layer_1" /><polygon
     style="fill:#EBF1F2;"
     points="193.9,370.1 196.2,390.4 248.1,403.4 299.9,390.4 302.3,370.1 "
     id="polygon10" /><path
     style="fill:#D38957;"
     d="M217.9,383.5c26.9,15,57.4,31.8,65.2,33.2c32.8,5.8,57,22.2,54.3,28.8c0,0-77.6-11.2-134.5-22.7  C180.9,418.4,197,371.9,217.9,383.5z"
     id="path12" /><path
     style="fill:#EBF1F2;"
     d="M217.9,383.5c-20.9-11.7-39.6-22.3-44-24c-16.5-6.3-55.1-20.7-63.8,8s20.7,34.3,41.8,42.4  c10.2,3.9,29.1,8.4,51.1,12.8C206.1,409,211.2,395.8,217.9,383.5z"
     id="path14" /><path
     style="fill:#D38957;"
     d="M278.3,383.5c-26.9,15-57.4,31.8-65.2,33.2c-32.8,5.8-57,22.2-54.3,28.8c0,0,77.6-11.2,134.5-22.7  C315.2,418.4,299.1,371.9,278.3,383.5z"
     id="path16" /><g
     id="g22"><path
       style="fill:#EBF1F2;"
       d="M278.3,383.5c20.9-11.7,39.6-22.3,44-24c16.5-6.3,55.1-20.7,63.8,8c8.7,28.7-20.7,34.3-41.8,42.4   c-10.2,3.9-29.1,8.4-51.1,12.8C290.1,409,285,395.8,278.3,383.5z"
       id="path18" /><path
       style="fill:#EBF1F2;"
       d="M299.9,238.4c3.7-22.5-14.7-63.5-14.7-63.5c-8.9-1.1-17.9-1.5-24.9-1.5h-24.6   c-7,0.1-16,0.4-24.8,1.5c0,0-18.4,41-14.7,63.5c3.4,21,9.4,51.7-2.3,131.7h54.2l0,0h54.2C290.5,290.1,296.5,259.4,299.9,238.4z"
       id="path20" /></g><g
     id="g36"><path
       style="fill:#D38957;"
       d="M124.2,352.3l-45.8-27.7l5.9-3.4l38.5,14.3l32.8-45.8c6.9-18,5.9-97.9,23.7-107.2   C192,175.8,211,175,211,175s-8.4,44.6-13.5,44.8s-4.2,14.1-8.6,32.7c-2,17.6-3.4,31.3-7.3,42.6L124.2,352.3z"
       id="path24" /><polygon
       style="fill:#D38957;"
       points="130.2,337 115,335.4 120.5,321.9 111.7,317.2 114.6,313.5 128.1,316.8  "
       id="polygon26" /><polygon
       style="fill:#D38957;"
       points="98.2,332.5 106.8,333.6 110.2,322.4 117.6,319.7 116.7,315.6 106.3,315.9  "
       id="polygon28" /><path
       style="fill:#D38957;"
       d="M372,352.3l45.8-27.7l-5.9-3.4l-38.5,14.3l-32.8-45.8c-6.9-18-5.9-97.9-23.7-107.2   c-12.7-6.7-31.7-7.5-31.7-7.5s8.4,44.6,13.5,44.8c5.1,0.2,4.2,14.1,8.6,32.7c2,17.6,3.4,31.3,7.3,42.6L372,352.3z"
       id="path30" /><polygon
       style="fill:#D38957;"
       points="366,337 381.2,335.4 375.7,321.9 384.5,317.2 381.6,313.5 368.1,316.8  "
       id="polygon32" /><polygon
       style="fill:#D38957;"
       points="398,332.5 389.4,333.6 386,322.4 378.6,319.7 379.5,315.6 389.9,315.9  "
       id="polygon34" /></g><path
     style="fill:#C18053;"
     d="M264.6,150.9h-33.1c5.2,15.6,0.4,22.7,0.4,22.7s1,10.2,16.2,10.2s16.1-10.2,16.1-10.2  S259.4,166.4,264.6,150.9z"
     id="path38" /><path
     style="fill:#D38957;"
     d="M282,105.3c0-39.3-15.2-48.4-33.9-48.4s-34,9-34,48.4c0,13.3,2.4,23.7,6,31.8  c7.8,17.7,21.4,23.9,28,23.9s20.2-6.2,28-23.9C279.6,129.1,282,118.7,282,105.3z"
     id="path40" /><path
     style="fill:#BA634F;"
     d="M257.6,144.9c0,0-4.3,2.2-9.6,2.2c-5.3,0-9.6-2.2-9.6-2.2c0-0.6,3-4.1,5.1-4.4  c1.3-0.2,4.5,1.1,4.5,1.1s3.2-1.3,4.4-1.1C254.6,140.8,257.6,144.9,257.6,144.9z"
     id="path42" /><path
     style="fill:#AA5B4B;"
     d="M257.6,144.9c0,0-4.3,3.9-9.6,3.9c-5.3,0-9.6-3.9-9.6-3.9s1-1.2,6.6-1.5c0.9-0.1,2.2,0.7,3,0.7  c0.7,0,1.8-0.8,2.6-0.7C256.5,143.7,257.6,144.9,257.6,144.9z"
     id="path44" /><g
     id="g50"><path
       style="fill:#33160A;"
       d="M230.2,58.9c0-6.7,8-12.2,17.9-12.2S266,52.2,266,58.9s-8,12.2-17.9,12.2S230.2,65.7,230.2,58.9z"
       id="path46" /><path
       style="fill:#33160A;"
       d="M283.2,107c0-39.3-10.8-50-35.2-50s-35.2,10.7-35.2,50c0,0,52.2-11.3,52.2-25.6   C265.1,95.7,283.2,107,283.2,107z"
       id="path48" /></g><g
     id="g56"><path
       style="fill:#D38957;"
       d="M210.8,119.2c1.8,10.7,4.1,11.2,7.4,10.7l-3.5-23.3C211.5,107.1,209,108.5,210.8,119.2z"
       id="path52" /><path
       style="fill:#D38957;"
       d="M281.4,106.5l-3.5,23.3c3.2,0.6,5.5,0.1,7.4-10.7C287.1,108.5,284.7,107.1,281.4,106.5z"
       id="path54" /></g><g
     id="g62"><path
       style="fill:#33160A;"
       d="M216.8,108.7c-0.2-1.2-0.2-2.2-0.2-3c0-1.2,0.2-2,0.2-2l-4,1.5c0,0.6,0,1.2,0,1.8   c0,0,0.4-0.1,1.2-0.4h-0.1c0.5,0.9,1.2,2.4,1.9,4.5C215.8,111.1,217.4,112.3,216.8,108.7z"
       id="path58" /><path
       style="fill:#33160A;"
       d="M279.5,105.7c0,0.8,0,1.9-0.2,3c-0.6,3.6,1,2.4,1,2.4c0.7-2.1,1.3-3.5,1.9-4.5   c0.7,0.2,1.1,0.4,1.1,0.4c0-0.6,0-1.2,0-1.8l-4-1.5C279.3,103.7,279.4,104.5,279.5,105.7"
       id="path60" /></g><g
     id="g68" /><g
     id="g70" /><g
     id="g72" /><g
     id="g74" /><g
     id="g76" /><g
     id="g78" /><g
     id="g80" /><g
     id="g82" /><g
     id="g84" /><g
     id="g86" /><g
     id="g88" /><g
     id="g90" /><g
     id="g92" /><g
     id="g94" /><g
     id="g96" /></svg>