<?xml version="1.0" encoding="iso-8859-1"?>
<!-- Generator: Adobe Illustrator 19.0.0, SVG Export Plug-In . SVG Version: 6.00 Build 0)  -->
<svg version="1.1" id="Layer_1" xmlns="http://www.w3.org/2000/svg" xmlns:xlink="http://www.w3.org/1999/xlink" x="0px" y="0px"
	 viewBox="0 0 512 512" style="enable-background:new 0 0 512 512;" xml:space="preserve">
<path style="fill:#FFCE54;" d="M365.703,295.562c5.75-14,8.969-29.281,8.969-45.344c0-65.898-53.422-119.328-119.328-119.328
	S136,184.32,136,250.219c0,16.062,3.219,31.344,8.969,45.344L365.703,295.562L365.703,295.562z"/>
<rect y="293.34" style="fill:#3BAFDA;" width="512" height="202.66"/>
<path d="M501.328,282.656h-121.14c2.625-10.219,4.031-20.938,4.031-32c0-70.805-57.406-128.211-128.219-128.211
	s-128.219,57.406-128.219,128.211c0,11.062,1.406,21.781,4.031,32H10.672C4.781,282.656,0,287.438,0,293.344
	C0,299.219,4.781,304,10.672,304h490.656c5.891,0,10.672-4.781,10.672-10.656C512,287.438,507.219,282.656,501.328,282.656z
	 M149.109,250.656c0-28.539,11.125-55.383,31.312-75.57s47.031-31.312,75.578-31.312s55.391,11.125,75.578,31.312
	s31.312,47.031,31.312,75.57c0,11.031-1.672,21.781-4.859,32H153.969C150.781,272.438,149.109,261.688,149.109,250.656z"/>
<path d="M32,261.344L32,261.344L32,261.344h64c5.891,0,10.672-4.781,10.672-10.688c0-5.875-4.781-10.656-10.672-10.656l0,0H32
	c-5.891,0-10.672,4.781-10.672,10.656C21.328,256.562,26.109,261.344,32,261.344z"/>
<path d="M416,240L416,240L416,240c-5.891,0-10.672,4.781-10.672,10.656c0,5.906,4.781,10.672,10.672,10.688l0,0h64l0,0l0,0
	c5.891,0,10.672-4.781,10.672-10.688c0-5.875-4.781-10.656-10.672-10.656c-0.016,0-0.016,0-0.031,0L416,240L416,240z"/>
<path d="M361.594,145.07c4.172,4.164,10.922,4.164,15.094,0v-0.008l45.25-45.242v-0.008l0,0c4.156-4.164,4.156-10.914,0-15.078
	c-4.172-4.172-10.922-4.172-15.094,0c0,0.008,0,0.008-0.016,0.016l-45.234,45.234l0,0l0,0l0,0l0,0
	C357.422,134.156,357.438,140.906,361.594,145.07z"/>
<path d="M245.328,90.664c0,5.891,4.781,10.672,10.672,10.672s10.672-4.781,10.672-10.672v-64l0,0l0,0
	C266.672,20.773,261.891,16,256,16s-10.672,4.773-10.672,10.664c0,0.016,0,0.023,0,0.031V90.664L245.328,90.664L245.328,90.664
	L245.328,90.664L245.328,90.664z"/>
<path d="M90.094,99.836l45.219,45.234l0,0c4.172,4.172,10.922,4.164,15.094,0s4.172-10.914,0-15.086l-0.016-0.008l-45.234-45.242
	l0,0l0,0c-4.172-4.164-10.922-4.164-15.094,0c-4.156,4.164-4.156,10.922,0,15.086C90.078,99.828,90.078,99.828,90.094,99.836z"/>
<path d="M21.328,368H64c5.891,0,10.672-4.781,10.672-10.656c0-5.906-4.781-10.688-10.672-10.688H21.328
	c-5.891,0-10.656,4.781-10.656,10.688C10.672,363.219,15.438,368,21.328,368z"/>
<path d="M490.672,432c5.891,0,10.656-4.781,10.656-10.656c0-5.906-4.766-10.688-10.656-10.688H448
	c-5.891,0-10.672,4.781-10.672,10.688c0,5.875,4.781,10.656,10.672,10.656H490.672z"/>
<path d="M234.672,368c5.891,0,10.656-4.781,10.656-10.656c0-5.906-4.766-10.688-10.656-10.688h-128
	c-5.891,0-10.672,4.781-10.672,10.688c0,5.875,4.781,10.656,10.672,10.656H234.672z"/>
<path d="M490.672,346.656h-128c-5.891,0-10.672,4.781-10.672,10.688c0,5.875,4.781,10.656,10.672,10.656h128
	c5.891,0,10.656-4.781,10.656-10.656C501.328,351.438,496.562,346.656,490.672,346.656z"/>
<path d="M277.328,368H320c5.891,0,10.672-4.781,10.672-10.656c0-5.906-4.781-10.688-10.672-10.688h-42.672
	c-5.891,0-10.656,4.781-10.656,10.688C266.672,363.219,271.438,368,277.328,368z"/>
<path d="M64,474.656H21.328c-5.891,0-10.656,4.781-10.656,10.688c0,5.875,4.766,10.656,10.656,10.656H64
	c5.891,0,10.672-4.781,10.672-10.656C74.672,479.438,69.891,474.656,64,474.656z"/>
<path d="M234.672,474.656h-128c-5.891,0-10.672,4.781-10.672,10.688c0,5.875,4.781,10.656,10.672,10.656h128
	c5.891,0,10.656-4.781,10.656-10.656C245.328,479.438,240.562,474.656,234.672,474.656z"/>
<path d="M490.672,474.656h-128c-5.891,0-10.672,4.781-10.672,10.688c0,5.875,4.781,10.656,10.672,10.656h128
	c5.891,0,10.656-4.781,10.656-10.656C501.328,479.438,496.562,474.656,490.672,474.656z"/>
<path d="M320,474.656h-42.672c-5.891,0-10.656,4.781-10.656,10.688c0,5.875,4.766,10.656,10.656,10.656H320
	c5.891,0,10.672-4.781,10.672-10.656C330.672,479.438,325.891,474.656,320,474.656z"/>
<path d="M21.328,432h128c5.891,0,10.672-4.781,10.672-10.656c0-5.906-4.781-10.688-10.672-10.688h-128
	c-5.891,0-10.656,4.781-10.656,10.688C10.672,427.219,15.438,432,21.328,432z"/>
<path d="M277.328,432h128c5.891,0,10.672-4.781,10.672-10.656c0-5.906-4.781-10.688-10.672-10.688h-128
	c-5.891,0-10.656,4.781-10.656,10.688C266.672,427.219,271.438,432,277.328,432z"/>
<path d="M234.672,410.656H192c-5.891,0-10.672,4.781-10.672,10.688c0,5.875,4.781,10.656,10.672,10.656h42.672
	c5.891,0,10.656-4.781,10.656-10.656C245.328,415.438,240.562,410.656,234.672,410.656z"/>
<g>
</g>
<g>
</g>
<g>
</g>
<g>
</g>
<g>
</g>
<g>
</g>
<g>
</g>
<g>
</g>
<g>
</g>
<g>
</g>
<g>
</g>
<g>
</g>
<g>
</g>
<g>
</g>
<g>
</g>
</svg>
